<svg width="23" height="26" viewBox="0 0 23 26" fill="none" xmlns="http://www.w3.org/2000/svg">
<path d="M16.8152 2.82489V0.917173C16.8152 0.415785 16.3994 0 15.898 0C15.3966 0 14.9808 0.415785 14.9808 0.917173V2.75152H7.03202V0.917173C7.03202 0.415785 6.61624 0 6.11485 0C5.61346 0 5.19768 0.415785 5.19768 0.917173V2.82489C1.89585 3.13062 0.293858 5.09948 0.0492783 8.02221C0.0248203 8.37685 0.318316 8.67034 0.660727 8.67034H21.3521C21.7068 8.67034 22.0003 8.36462 21.9636 8.02221C21.719 5.09948 20.117 3.13062 16.8152 2.82489Z" fill="#2E2E2E"/>
<path d="M20.7893 10.5043H1.2229C0.550304 10.5043 0 11.0546 0 11.7272V19.2602C0 22.9289 1.83435 25.3747 6.11449 25.3747H15.8977C20.1778 25.3747 22.0122 22.9289 22.0122 19.2602V11.7272C22.0122 11.0546 21.4619 10.5043 20.7893 10.5043ZM7.59419 20.74C7.53305 20.7889 7.4719 20.85 7.41076 20.8867C7.33739 20.9356 7.26401 20.9723 7.19064 20.9968C7.11726 21.0334 7.04389 21.0579 6.97052 21.0701C6.88491 21.0824 6.81154 21.0946 6.72594 21.0946C6.56696 21.0946 6.40798 21.0579 6.26124 20.9968C6.10226 20.9356 5.97997 20.85 5.85768 20.74C5.63756 20.5076 5.50304 20.1896 5.50304 19.8717C5.50304 19.5537 5.63756 19.2358 5.85768 19.0034C5.97997 18.8934 6.10226 18.8078 6.26124 18.7466C6.48136 18.6488 6.72594 18.6243 6.97052 18.6733C7.04389 18.6855 7.11726 18.7099 7.19064 18.7466C7.26401 18.7711 7.33739 18.8078 7.41076 18.8567C7.4719 18.9056 7.53305 18.9545 7.59419 19.0034C7.81432 19.2358 7.94883 19.5537 7.94883 19.8717C7.94883 20.1896 7.81432 20.5076 7.59419 20.74ZM7.59419 16.4598C7.36184 16.6799 7.04389 16.8145 6.72594 16.8145C6.40798 16.8145 6.09003 16.6799 5.85768 16.4598C5.63756 16.2275 5.50304 15.9095 5.50304 15.5916C5.50304 15.2736 5.63756 14.9556 5.85768 14.7233C6.20009 14.3809 6.73817 14.2708 7.19064 14.4665C7.34961 14.5276 7.48413 14.6132 7.59419 14.7233C7.81432 14.9556 7.94883 15.2736 7.94883 15.5916C7.94883 15.9095 7.81432 16.2275 7.59419 16.4598ZM11.8743 20.74C11.642 20.9601 11.324 21.0946 11.0061 21.0946C10.6881 21.0946 10.3702 20.9601 10.1378 20.74C9.9177 20.5076 9.78318 20.1896 9.78318 19.8717C9.78318 19.5537 9.9177 19.2358 10.1378 19.0034C10.5903 18.551 11.4219 18.551 11.8743 19.0034C12.0945 19.2358 12.229 19.5537 12.229 19.8717C12.229 20.1896 12.0945 20.5076 11.8743 20.74ZM11.8743 16.4598C11.8132 16.5087 11.752 16.5576 11.6909 16.6066C11.6175 16.6555 11.5442 16.6922 11.4708 16.7166C11.3974 16.7533 11.324 16.7778 11.2507 16.79C11.1651 16.8022 11.0917 16.8145 11.0061 16.8145C10.6881 16.8145 10.3702 16.6799 10.1378 16.4598C9.9177 16.2275 9.78318 15.9095 9.78318 15.5916C9.78318 15.2736 9.9177 14.9556 10.1378 14.7233C10.2479 14.6132 10.3824 14.5276 10.5414 14.4665C10.9938 14.2708 11.5319 14.3809 11.8743 14.7233C12.0945 14.9556 12.229 15.2736 12.229 15.5916C12.229 15.9095 12.0945 16.2275 11.8743 16.4598ZM16.1545 20.74C15.9221 20.9601 15.6042 21.0946 15.2862 21.0946C14.9683 21.0946 14.6503 20.9601 14.418 20.74C14.1978 20.5076 14.0633 20.1896 14.0633 19.8717C14.0633 19.5537 14.1978 19.2358 14.418 19.0034C14.8704 18.551 15.702 18.551 16.1545 19.0034C16.3746 19.2358 16.5091 19.5537 16.5091 19.8717C16.5091 20.1896 16.3746 20.5076 16.1545 20.74ZM16.1545 16.4598C16.0933 16.5087 16.0322 16.5576 15.971 16.6066C15.8977 16.6555 15.8243 16.6922 15.7509 16.7166C15.6775 16.7533 15.6042 16.7778 15.5308 16.79C15.4452 16.8022 15.3596 16.8145 15.2862 16.8145C14.9683 16.8145 14.6503 16.6799 14.418 16.4598C14.1978 16.2275 14.0633 15.9095 14.0633 15.5916C14.0633 15.2736 14.1978 14.9556 14.418 14.7233C14.5403 14.6132 14.6625 14.5276 14.8215 14.4665C15.0416 14.3687 15.2862 14.3442 15.5308 14.3931C15.6042 14.4053 15.6775 14.4298 15.7509 14.4665C15.8243 14.4909 15.8977 14.5276 15.971 14.5765L16.1545 14.7233C16.3746 14.9556 16.5091 15.2736 16.5091 15.5916C16.5091 15.9095 16.3746 16.2275 16.1545 16.4598Z" fill="#2E2E2E"/>
</svg>
