<svg width="25" height="25" viewBox="0 0 25 25" fill="none" xmlns="http://www.w3.org/2000/svg">
<g clip-path="url(#clip0_39_111)">
<path d="M22.1584 24.1667H24.2334C25.2834 24.1667 26.1459 23.3542 26.2709 22.3292L28.3334 1.72916H22.0834V-3.33334H19.6209V1.72916H13.4084L13.7834 4.65416C15.9209 5.24166 17.9209 6.30416 19.1209 7.47916C20.9209 9.25416 22.1584 11.0917 22.1584 14.0917V24.1667ZM0.833374 22.9167V21.6667H19.6209V22.9167C19.6209 23.5917 19.0584 24.1667 18.3334 24.1667H2.08337C1.39587 24.1667 0.833374 23.5917 0.833374 22.9167ZM19.6209 14.1667C19.6209 4.16666 0.833374 4.16666 0.833374 14.1667H19.6209ZM0.833374 16.6667H19.5834V19.1667H0.833374V16.6667Z" fill="#ECECEC"/>
</g>
<defs>
<clipPath id="clip0_39_111">
<rect width="25" height="25" fill="white"/>
</clipPath>
</defs>
</svg>
