<svg width="23" height="22" viewBox="0 0 23 22" fill="none" xmlns="http://www.w3.org/2000/svg">
<path d="M7.50275 21.6613H5.00183C2.2394 21.6613 0 19.4219 0 16.6595V8.79112C0 7.04207 0.913598 5.42007 2.40937 4.51354L8.66166 0.724278C10.2551 -0.241426 12.2531 -0.241426 13.8466 0.724278L20.0989 4.51354C21.5947 5.42007 22.5083 7.04207 22.5083 8.79112V16.6595C22.5083 19.4219 20.2688 21.6613 17.5064 21.6613H15.0055M7.50275 21.6613V16.6595C7.50275 14.5876 9.18224 12.9081 11.2541 12.9081C13.326 12.9081 15.0055 14.5876 15.0055 16.6595V21.6613M7.50275 21.6613H15.0055Z" fill="#ECECEC"/>
</svg>
