<svg width="25" height="24" viewBox="0 0 25 24" fill="none" xmlns="http://www.w3.org/2000/svg">
<path d="M8.50275 22.8307H6.00183C3.2394 22.8307 1 20.5912 1 17.8288V9.96043C1 8.21138 1.9136 6.58939 3.40937 5.68285L9.66166 1.89359C11.2551 0.927885 13.2531 0.927885 14.8466 1.89359L21.0989 5.68285C22.5947 6.58939 23.5083 8.21138 23.5083 9.96043V17.8288C23.5083 20.5912 21.2688 22.8307 18.5064 22.8307H16.0055M8.50275 22.8307V17.8288C8.50275 15.7569 10.1822 14.0774 12.2541 14.0774C14.326 14.0774 16.0055 15.7569 16.0055 17.8288V22.8307M8.50275 22.8307H16.0055" stroke="#ECECEC" stroke-width="2" stroke-linecap="round" stroke-linejoin="round"/>
</svg>
