<svg width="21" height="18" viewBox="0 0 21 18" fill="none" xmlns="http://www.w3.org/2000/svg">
<path d="M1.71602 10.2848H16.9632L12.2965 15.89C12.1885 16.02 12.1071 16.17 12.057 16.3315C12.0069 16.4929 11.9891 16.6626 12.0046 16.831C12.036 17.1709 12.2011 17.4845 12.4636 17.7027C12.7262 17.9209 13.0646 18.0259 13.4046 17.9946C13.7445 17.9632 14.0581 17.7981 14.2763 17.5356L20.7043 9.82198C20.7476 9.76063 20.7862 9.69617 20.82 9.62914C20.82 9.56486 20.8843 9.52629 20.91 9.46201C20.9683 9.31461 20.9988 9.1577 21 8.9992C20.9988 8.8407 20.9683 8.68379 20.91 8.53638C20.91 8.4721 20.8457 8.43353 20.82 8.36925C20.7862 8.30222 20.7476 8.23777 20.7043 8.17641L14.2763 0.462818C14.1554 0.317696 14.0041 0.20099 13.833 0.120998C13.6619 0.0410068 13.4753 -0.000304265 13.2864 2.45595e-06C12.986 -0.000584437 12.6949 0.104032 12.4636 0.29569C12.3335 0.403615 12.2258 0.536161 12.147 0.685737C12.0681 0.835313 12.0195 0.99898 12.004 1.16736C11.9885 1.33575 12.0063 1.50554 12.0565 1.66701C12.1067 1.82849 12.1883 1.97848 12.2965 2.10838L16.9632 7.7136H1.71602C1.37506 7.7136 1.04806 7.84904 0.806963 8.09014C0.565867 8.33124 0.43042 8.65823 0.43042 8.9992C0.43042 9.34016 0.565867 9.66716 0.806963 9.90825C1.04806 10.1493 1.37506 10.2848 1.71602 10.2848Z" fill="#151515"/>
</svg>
