<svg width="236" height="207" viewBox="0 0 236 207" fill="none" xmlns="http://www.w3.org/2000/svg">
<g clip-path="url(#clip0_1_357)">
<path d="M14.2743 0C14.0399 0.000257896 13.8151 0.09365 13.6494 0.259689C13.4836 0.425728 13.3904 0.65085 13.3901 0.885664V31.0938C13.3904 31.3287 13.4836 31.5538 13.6494 31.7198C13.8151 31.8859 14.0399 31.9792 14.2743 31.9795H117.104C117.338 31.9792 117.563 31.8859 117.729 31.7198C117.894 31.5538 117.988 31.3287 117.988 31.0938V0.885664C117.988 0.65085 117.894 0.425728 117.729 0.259689C117.563 0.09365 117.338 0.000257896 117.104 0H14.2743Z" fill="#E6E6E6"/>
<path d="M15.6055 29.7603H115.772V2.21919H15.6055V29.7603Z" fill="white"/>
<path d="M103.128 24.0465C102.936 24.0465 102.746 24.0844 102.568 24.1582C102.39 24.2319 102.229 24.34 102.093 24.4762C101.957 24.6125 101.849 24.7742 101.775 24.9522C101.702 25.1302 101.664 25.321 101.664 25.5137C101.664 25.7063 101.702 25.8971 101.775 26.0751C101.849 26.2531 101.957 26.4149 102.093 26.5511C102.229 26.6874 102.39 26.7954 102.568 26.8692C102.746 26.9429 102.936 26.9809 103.128 26.9809H108.987C109.179 26.9809 109.37 26.9429 109.547 26.8692C109.725 26.7954 109.886 26.6874 110.022 26.5511C110.158 26.4149 110.266 26.2531 110.34 26.0751C110.414 25.8971 110.451 25.7063 110.451 25.5137C110.451 25.321 110.414 25.1302 110.34 24.9522C110.266 24.7742 110.158 24.6125 110.022 24.4762C109.886 24.34 109.725 24.2319 109.547 24.1582C109.37 24.0844 109.179 24.0465 108.987 24.0465H103.128Z" fill="#BBF46E"/>
<path d="M110.452 21.2008H42.8225V21.587H110.452V21.2008Z" fill="#E6E6E6"/>
<path d="M28.686 24.535C33.3974 24.535 37.2167 20.7092 37.2167 15.9898C37.2167 11.2704 33.3974 7.44455 28.686 7.44455C23.9747 7.44455 20.1554 11.2704 20.1554 15.9898C20.1554 20.7092 23.9747 24.535 28.686 24.535Z" fill="#E6E6E6"/>
<path d="M42.9301 19.0453L42.7164 18.724L49.744 14.031L54.5629 16.3483L61.4945 11.9122L61.5882 11.9521L75.2834 17.8043L86.2639 12.401L96.9266 16.7312L110.324 19.4593L110.58 19.7484L97.0031 17.1791L86.2788 12.8235L75.2941 18.2284L61.5301 12.347L54.5892 16.789L49.7745 14.474L42.9301 19.0453Z" fill="#3F3D56"/>
<path d="M44.075 24.2488C43.7463 24.2541 43.4329 24.3886 43.2024 24.6233C42.9719 24.858 42.8427 25.174 42.8427 25.5033C42.8427 25.8325 42.9719 26.1486 43.2024 26.3833C43.4329 26.6179 43.7463 26.7524 44.075 26.7577H57.1768C57.5087 26.7626 57.8289 26.6354 58.0672 26.404C58.3055 26.1725 58.4423 25.8558 58.4476 25.5234C58.4529 25.191 58.3263 24.87 58.0956 24.631C57.8649 24.3921 57.5489 24.2546 57.217 24.2488C57.2036 24.2486 57.1902 24.2486 57.1768 24.2488H44.075Z" fill="#E6E6E6"/>
<path d="M32.1174 15.8836C32.0215 15.7875 31.8914 15.7335 31.7557 15.7335C31.62 15.7335 31.4899 15.7875 31.3939 15.8836L29.1977 18.0836V12.6587C29.1965 12.5235 29.1421 12.3942 29.0463 12.2991C28.9505 12.2039 28.821 12.1505 28.6861 12.1505C28.5511 12.1505 28.4216 12.2039 28.3258 12.2991C28.23 12.3942 28.1756 12.5235 28.1744 12.6587V18.0836L25.9782 15.8836C25.8824 15.7876 25.7526 15.7336 25.6171 15.7334C25.4816 15.7332 25.3516 15.7869 25.2555 15.8826C25.1595 15.9783 25.1052 16.1083 25.1047 16.244C25.1042 16.3797 25.1575 16.5101 25.2528 16.6065L25.2547 16.6084L28.3243 19.6832C28.4202 19.7793 28.5504 19.8333 28.6861 19.8333C28.8217 19.8333 28.9519 19.7793 29.0478 19.6832L32.1174 16.6084C32.2134 16.5123 32.2673 16.3819 32.2673 16.246C32.2673 16.1101 32.2134 15.9797 32.1174 15.8836Z" fill="white"/>
<path d="M54.7293 48.3798C54.4948 48.38 54.2701 48.4734 54.1043 48.6395C53.9386 48.8055 53.8454 49.0306 53.8451 49.2655V79.4736C53.8454 79.7084 53.9386 79.9336 54.1043 80.0996C54.2701 80.2656 54.4948 80.359 54.7293 80.3593H157.559C157.793 80.359 158.018 80.2656 158.184 80.0996C158.35 79.9336 158.443 79.7084 158.443 79.4736V49.2655C158.443 49.0306 158.35 48.8055 158.184 48.6395C158.018 48.4734 157.793 48.38 157.559 48.3798H54.7293Z" fill="#E6E6E6"/>
<path d="M56.0608 78.1401H156.227V50.599H56.0608V78.1401Z" fill="white"/>
<path d="M143.584 72.4269C143.195 72.4269 142.823 72.5815 142.548 72.8567C142.273 73.1318 142.119 73.505 142.119 73.8941C142.119 74.2832 142.273 74.6564 142.548 74.9316C142.823 75.2067 143.195 75.3613 143.584 75.3613H149.441C149.83 75.3613 150.202 75.2067 150.477 74.9316C150.752 74.6564 150.906 74.2832 150.906 73.8941C150.906 73.505 150.752 73.1318 150.477 72.8567C150.202 72.5815 149.83 72.4269 149.441 72.4269H143.584Z" fill="#BBF46E"/>
<path d="M150.907 69.5809H83.2777V69.9671H150.907V69.5809Z" fill="#E6E6E6"/>
<path d="M69.141 72.9151C73.8523 72.9151 77.6716 69.0893 77.6716 64.3699C77.6716 59.6505 73.8523 55.8247 69.141 55.8247C64.4297 55.8247 60.6104 59.6505 60.6104 64.3699C60.6104 69.0893 64.4297 72.9151 69.141 72.9151Z" fill="#BBF46E"/>
<path d="M83.3848 67.4254L83.1708 67.1042L90.1983 62.4111L95.0176 64.7284L101.949 60.2923L102.043 60.3322L115.738 66.1844L126.719 60.7811L137.381 65.111L150.779 53.2242L151.035 53.5132L137.458 65.5579L126.733 61.2026L115.749 66.6076L101.985 60.7262L95.0442 65.1682L90.2307 62.8541L83.3848 67.4254Z" fill="#3F3D56"/>
<path d="M84.5302 72.6286C84.1981 72.6232 83.8774 72.7502 83.6387 72.9816C83.4 73.213 83.2629 73.5299 83.2575 73.8626C83.2521 74.1953 83.3788 74.5166 83.6099 74.7557C83.8409 74.9947 84.1573 75.1321 84.4894 75.1375C84.503 75.1377 84.5166 75.1377 84.5302 75.1375H97.6321C97.9607 75.1322 98.2741 74.9977 98.5046 74.7631C98.7352 74.5284 98.8644 74.2123 98.8644 73.8831C98.8644 73.5538 98.7352 73.2378 98.5046 73.0031C98.2741 72.7684 97.9607 72.6339 97.6321 72.6286H84.5302Z" fill="#E6E6E6"/>
<path d="M65.7095 64.476C65.757 64.5236 65.8134 64.5613 65.8755 64.5871C65.9376 64.6129 66.0041 64.6261 66.0713 64.6261C66.1385 64.6261 66.205 64.6129 66.2671 64.5871C66.3291 64.5614 66.3855 64.5236 66.433 64.476L68.6293 62.276V67.701C68.6293 67.8369 68.6832 67.9672 68.7792 68.0633C68.8751 68.1594 69.0052 68.2134 69.1409 68.2134C69.2766 68.2134 69.4067 68.1594 69.5027 68.0633C69.5986 67.9672 69.6525 67.8369 69.6525 67.701V62.276L71.8488 64.476C71.8963 64.5236 71.9527 64.5614 72.0147 64.5871C72.0768 64.6129 72.1433 64.6261 72.2105 64.6261C72.2777 64.6261 72.3443 64.6129 72.4063 64.5871C72.4684 64.5614 72.5248 64.5236 72.5723 64.476C72.6198 64.4284 72.6575 64.3719 72.6832 64.3098C72.7089 64.2476 72.7222 64.1809 72.7222 64.1136C72.7222 64.0463 72.7089 63.9797 72.6832 63.9175C72.6575 63.8553 72.6198 63.7988 72.5723 63.7513L69.5027 60.6764C69.4067 60.5803 69.2766 60.5263 69.1409 60.5263C69.0052 60.5263 68.8751 60.5803 68.7792 60.6764L65.7095 63.7513C65.6136 63.8474 65.5597 63.9777 65.5597 64.1136C65.5597 64.2495 65.6136 64.3799 65.7095 64.476Z" fill="white"/>
<path d="M0.884159 96.7599C0.649745 96.7602 0.425007 96.8536 0.259251 97.0196C0.0934952 97.1856 0.000257457 97.4108 0 97.6456V127.854C0.000257457 128.089 0.0934952 128.314 0.259251 128.48C0.425007 128.646 0.649745 128.739 0.884159 128.739H103.714C103.948 128.739 104.173 128.646 104.338 128.48C104.504 128.314 104.597 128.089 104.598 127.854V97.6456C104.597 97.4108 104.504 97.1856 104.338 97.0196C104.173 96.8536 103.948 96.7602 103.714 96.7599H0.884159Z" fill="#E6E6E6"/>
<path d="M2.2157 126.52H102.382V98.9791H2.2157V126.52Z" fill="white"/>
<path d="M89.7382 120.807C89.3498 120.807 88.9772 120.961 88.7026 121.236C88.4279 121.512 88.2736 121.885 88.2736 122.274C88.2736 122.663 88.4279 123.036 88.7026 123.311C88.9772 123.587 89.3498 123.741 89.7382 123.741H95.5966C95.9851 123.741 96.3576 123.587 96.6323 123.311C96.907 123.036 97.0613 122.663 97.0613 122.274C97.0613 121.885 96.907 121.512 96.6323 121.236C96.3576 120.961 95.9851 120.807 95.5966 120.807H89.7382Z" fill="#BBF46E"/>
<path d="M97.0615 117.961H29.4324V118.347H97.0615V117.961Z" fill="#E6E6E6"/>
<path d="M15.2959 121.295C20.0072 121.295 23.8265 117.469 23.8265 112.75C23.8265 108.03 20.0072 104.204 15.2959 104.204C10.5846 104.204 6.76526 108.03 6.76526 112.75C6.76526 117.469 10.5846 121.295 15.2959 121.295Z" fill="#BBF46E"/>
<path d="M29.5393 115.805L29.3257 115.484L36.3532 110.791L41.1722 113.108L48.1041 108.671L61.8926 114.563L72.8731 109.159L83.5345 113.491L96.9324 108.099L97.1879 108.389L83.6127 113.939L72.8883 109.583L61.904 114.988L48.1401 109.107L41.1994 113.549L36.3847 111.234L29.5393 115.805Z" fill="#3F3D56"/>
<path d="M30.6848 121.008C30.3562 121.014 30.0428 121.148 29.8123 121.383C29.5817 121.618 29.4525 121.934 29.4525 122.263C29.4525 122.592 29.5817 122.908 29.8123 123.143C30.0428 123.378 30.3562 123.512 30.6848 123.517H43.7867C43.9512 123.52 44.1145 123.49 44.2675 123.43C44.4205 123.369 44.56 123.279 44.6782 123.164C44.7964 123.05 44.8909 122.913 44.9563 122.762C45.0217 122.611 45.0567 122.448 45.0594 122.283C45.0621 122.119 45.0324 121.955 44.9719 121.802C44.9114 121.648 44.8214 121.509 44.707 121.39C44.5927 121.272 44.4561 121.177 44.3052 121.112C44.1543 121.046 43.9919 121.011 43.8275 121.008C43.8139 121.008 43.8003 121.008 43.7867 121.008H30.6848Z" fill="#E6E6E6"/>
<path d="M11.8646 112.856C11.9121 112.903 11.9685 112.941 12.0305 112.967C12.0926 112.993 12.1591 113.006 12.2263 113.006C12.2935 113.006 12.36 112.993 12.4221 112.967C12.4842 112.941 12.5406 112.903 12.5881 112.856L14.7843 110.656V116.081C14.7849 116.216 14.8389 116.346 14.9344 116.441C15.03 116.537 15.1593 116.591 15.2943 116.591C15.4293 116.591 15.559 116.538 15.6552 116.443C15.7513 116.348 15.8061 116.219 15.8076 116.084V110.656L18.0038 112.856C18.0995 112.952 18.2295 113.006 18.3652 113.007C18.5009 113.007 18.6311 112.954 18.7273 112.858C18.8235 112.762 18.8777 112.632 18.8781 112.496C18.8784 112.36 18.8249 112.229 18.7292 112.133L18.7273 112.131L15.6577 109.056C15.5618 108.96 15.4316 108.906 15.296 108.906C15.1603 108.906 15.0301 108.96 14.9342 109.056L11.8646 112.131C11.8171 112.179 11.7794 112.235 11.7537 112.297C11.728 112.359 11.7147 112.426 11.7147 112.493C11.7147 112.561 11.728 112.627 11.7537 112.69C11.7794 112.752 11.8171 112.808 11.8646 112.856Z" fill="white"/>
<path d="M210.882 201.999L205.944 201.999L203.595 182.923L210.882 182.923L210.882 201.999Z" fill="#FFB7B7"/>
<path d="M212.141 206.794L196.221 206.793V206.591C196.221 204.945 196.874 203.366 198.036 202.202C199.198 201.038 200.774 200.384 202.417 200.384H202.418L212.141 200.385L212.141 206.794Z" fill="#2F2E41"/>
<path d="M192.759 201.999L187.822 201.999L185.473 182.923L192.76 182.923L192.759 201.999Z" fill="#FFB7B7"/>
<path d="M194.018 206.794L178.098 206.793V206.591C178.098 204.945 178.751 203.366 179.913 202.202C181.075 201.038 182.651 200.384 184.294 200.384H184.295L194.018 200.385L194.018 206.794Z" fill="#2F2E41"/>
<path d="M183.453 140.124C183.881 139.774 184.226 139.335 184.466 138.836C184.706 138.338 184.834 137.793 184.84 137.24C184.847 136.688 184.733 136.14 184.506 135.636C184.278 135.132 183.943 134.684 183.524 134.324L186.208 126.108L181.622 123.257L177.995 134.912C177.437 135.657 177.172 136.581 177.249 137.509C177.326 138.437 177.74 139.304 178.413 139.947C179.086 140.589 179.97 140.962 180.899 140.995C181.828 141.027 182.737 140.717 183.453 140.124Z" fill="#FFB7B7"/>
<path d="M188.345 134.7C188.345 134.7 183.737 159.689 183.794 164.539C183.864 170.393 186.464 195.479 186.464 195.479L193.084 193.821L194.335 164.745L199.57 146.188L201.584 169.989L203.605 195.026H211.285L213.005 132.214L187.932 131.385L188.345 134.7Z" fill="#2F2E41"/>
<path d="M211.307 84.3464L198.068 84.7608L189.793 136.151C189.793 136.151 207.377 144.232 214.824 138.43C222.271 132.628 211.307 84.3464 211.307 84.3464Z" fill="#CBCBCB"/>
<path d="M199.93 95.3289L188.759 159.566L181.726 157.494L186.691 134.286L189.173 111.077L188.759 87.8691L197.447 84.1392L199.93 81.2381C199.93 81.2381 204.895 87.4546 199.93 95.3289Z" fill="#2F2E41"/>
<path d="M205.722 93.7609L206.549 161.224L223.512 158.323L222.271 95.7433L223.926 87.0402L215.651 83.3103L212.301 81.2381C212.301 81.2381 204.895 83.4898 205.722 93.7609Z" fill="#2F2E41"/>
<path d="M192.483 89.1124L188.759 87.8691L183.381 111.906L178.83 130.97L185.449 132.214L191.655 111.492L192.483 89.1124Z" fill="#2F2E41"/>
<path d="M229.783 144.158C229.355 143.808 229.009 143.369 228.77 142.871C228.53 142.372 228.402 141.828 228.395 141.275C228.388 140.722 228.503 140.174 228.73 139.67C228.958 139.166 229.292 138.718 229.711 138.358L227.028 130.142L231.614 127.291L235.241 138.946C235.799 139.691 236.064 140.615 235.987 141.543C235.91 142.471 235.496 143.338 234.823 143.981C234.15 144.623 233.265 144.996 232.336 145.029C231.408 145.061 230.499 144.752 229.783 144.158Z" fill="#FFB7B7"/>
<path d="M220.35 88.3056L224.074 87.0624L229.452 111.099L234.406 135.004L226.955 136.102L221.178 110.685L220.35 88.3056Z" fill="#2F2E41"/>
<path d="M210.007 77.8486C214.463 75.4084 216.101 69.8115 213.665 65.3476C211.229 60.8838 205.642 59.2432 201.185 61.6834C196.729 64.1236 195.091 69.7204 197.528 74.1843C199.964 78.6482 205.551 80.2887 210.007 77.8486Z" fill="#FFB7B7"/>
<path d="M228.517 207H153.946C153.86 207 153.777 206.966 153.716 206.905C153.656 206.844 153.621 206.761 153.621 206.675C153.621 206.589 153.656 206.506 153.716 206.446C153.777 206.385 153.86 206.35 153.946 206.35H228.517C228.603 206.35 228.686 206.385 228.746 206.446C228.807 206.506 228.841 206.589 228.841 206.675C228.841 206.761 228.807 206.844 228.746 206.905C228.686 206.966 228.603 207 228.517 207Z" fill="#CBCBCB"/>
<path d="M202.39 57.7125C211.181 55.1731 213.676 62.4716 213.676 62.4716C217.913 65.2876 215.26 68.8182 215.26 68.8182C216.33 69.0561 214.192 75.3237 213.479 75.1651C213.099 75.0804 212.12 76.2499 211.291 77.359C211.006 77.3586 210.723 77.386 210.443 77.4406L212.053 71.4761C212.053 71.4761 206.628 70.6436 204.964 68.0257C203.373 65.5211 198.134 64.7303 196.643 66.4033C196.555 65.9223 196.375 65.463 196.112 65.051C195.908 64.7379 195.642 64.4706 195.33 64.2659C196.648 58.6546 202.39 57.7125 202.39 57.7125Z" fill="#2F2E41"/>
</g>
<defs>
<clipPath id="clip0_1_357">
<rect width="236" height="207" fill="white"/>
</clipPath>
</defs>
</svg>
