<svg width="30" height="31" viewBox="0 0 30 31" fill="none" xmlns="http://www.w3.org/2000/svg">
<path d="M21.3339 3.33946C21.875 3.11535 22.4549 3 23.0405 3C23.6261 3 24.206 3.11535 24.7471 3.33946C25.2881 3.56357 25.7798 3.89206 26.1939 4.30616C26.608 4.72026 26.9365 5.21187 27.1606 5.75294C27.3846 6.29399 27.5 6.87389 27.5 7.45951C27.5 8.04514 27.3846 8.62504 27.1606 9.1661C26.9365 9.70715 26.608 10.1988 26.1939 10.6129L25.5461 11.2606L19.2395 4.95385L19.8871 4.30616C20.3013 3.89206 20.7929 3.56357 21.3339 3.33946Z" fill="#151515"/>
<path d="M17.4717 6.72162L4.56825 19.6251C4.41442 19.7789 4.30341 19.9702 4.24617 20.1801L2.54407 26.4211C2.42605 26.8539 2.54896 27.3167 2.86615 27.6339C3.18334 27.9511 3.64616 28.074 4.07892 27.956L10.32 26.2539C10.5298 26.1966 10.7211 26.0856 10.8749 25.9317L23.7784 13.0284L17.4717 6.72162Z" fill="#151515"/>
</svg>
