<svg width="21" height="21" viewBox="0 0 21 21" fill="none" xmlns="http://www.w3.org/2000/svg">
<path d="M11.9583 2.0625C11.9583 1.6481 11.7937 1.25067 11.5007 0.957646C11.2077 0.66462 10.8102 0.5 10.3958 0.5C9.98143 0.5 9.584 0.66462 9.29098 0.957646C8.99795 1.25067 8.83333 1.6481 8.83333 2.0625V8.83333H2.0625C1.6481 8.83333 1.25067 8.99795 0.957646 9.29098C0.66462 9.584 0.5 9.98143 0.5 10.3958C0.5 10.8102 0.66462 11.2077 0.957646 11.5007C1.25067 11.7937 1.6481 11.9583 2.0625 11.9583H8.83333V18.7292C8.83333 19.1436 8.99795 19.541 9.29098 19.834C9.584 20.127 9.98143 20.2917 10.3958 20.2917C10.8102 20.2917 11.2077 20.127 11.5007 19.834C11.7937 19.541 11.9583 19.1436 11.9583 18.7292V11.9583H18.7292C19.1436 11.9583 19.541 11.7937 19.834 11.5007C20.127 11.2077 20.2917 10.8102 20.2917 10.3958C20.2917 9.98143 20.127 9.584 19.834 9.29098C19.541 8.99795 19.1436 8.83333 18.7292 8.83333H11.9583V2.0625Z" fill="#151515"/>
</svg>
