<!DOCTYPE svg PUBLIC "-//W3C//DTD SVG 1.1//EN" "http://www.w3.org/Graphics/SVG/1.1/DTD/svg11.dtd">
<!-- Uploaded to: SVG Repo, www.svgrepo.com, Transformed by: SVG Repo Mixer Tools -->
<svg width="800px" height="800px" viewBox="0 0 24 24" xmlns="http://www.w3.org/2000/svg" fill="#ffffff" stroke="#ffffff" stroke-width="0.00024000000000000003">
<g id="SVGRepo_bgCarrier" stroke-width="0"/>
<g id="SVGRepo_tracerCarrier" stroke-linecap="round" stroke-linejoin="round"/>
<g id="SVGRepo_iconCarrier"> <rect x="0" fill="none" width="24" height="24"/> <g> <path d="M2 5v14h20V5H2zm5 12c0-1.657-1.343-3-3-3v-4c1.657 0 3-1.343 3-3h10c0 1.657 1.343 3 3 3v4c-1.657 0-3 1.343-3 3H7zm5-8c1.1 0 2 1.3 2 3s-.9 3-2 3-2-1.3-2-3 .9-3 2-3z"/> </g> </g>
</svg>