<svg width="27" height="27" viewBox="0 0 27 27" fill="none" xmlns="http://www.w3.org/2000/svg">
<path d="M6.8715 22.5H4.5C4.20163 22.5 3.91548 22.6185 3.7045 22.8295C3.49353 23.0405 3.375 23.3266 3.375 23.625C3.375 23.9234 3.49353 24.2095 3.7045 24.4205C3.91548 24.6315 4.20163 24.75 4.5 24.75H22.5C22.7984 24.75 23.0845 24.6315 23.2955 24.4205C23.5065 24.2095 23.625 23.9234 23.625 23.625C23.625 23.3266 23.5065 23.0405 23.2955 22.8295C23.0845 22.6185 22.7984 22.5 22.5 22.5H20.1285C19.8506 19.3793 18.9236 13.9387 15.8242 12.375C18.7087 10.7741 19.7089 6.96375 20.0587 4.5H22.5C22.7984 4.5 23.0845 4.38147 23.2955 4.1705C23.5065 3.95952 23.625 3.67337 23.625 3.375C23.625 3.07663 23.5065 2.79048 23.2955 2.5795C23.0845 2.36853 22.7984 2.25 22.5 2.25H4.5C4.20163 2.25 3.91548 2.36853 3.7045 2.5795C3.49353 2.79048 3.375 3.07663 3.375 3.375C3.375 3.67337 3.49353 3.95952 3.7045 4.1705C3.91548 4.38147 4.20163 4.5 4.5 4.5H6.94125C7.29113 6.96375 8.29125 10.7741 11.1758 12.375C8.07637 13.9387 7.14937 19.3793 6.8715 22.5ZM10.125 18.675C10.125 17.325 13.5 14.625 13.5 14.625C13.5 14.625 16.875 17.325 16.875 18.675V22.5H10.125V18.675Z" fill="#060606"/>
</svg>
